<?xml version="1.0" encoding="utf-8"?>
<!-- Generator: Adobe Illustrator 18.0.0, SVG Export Plug-In . SVG Version: 6.00 Build 0)  -->
<!DOCTYPE svg PUBLIC "-//W3C//DTD SVG 1.1//EN" "http://www.w3.org/Graphics/SVG/1.1/DTD/svg11.dtd">
<svg version="1.1" id="Layer_1" xmlns="http://www.w3.org/2000/svg" xmlns:xlink="http://www.w3.org/1999/xlink" x="0px" y="0px"
	 viewBox="0 0 68.3 96.9" enable-background="new 0 0 68.3 96.9" xml:space="preserve">
<g>
	<path fill-rule="evenodd" clip-rule="evenodd" fill="#5CC6FD" d="M27.6,2.9c-0.4-0.3-0.4-2.3,0-2.7C27.6,1.2,27.6,2.1,27.6,2.9z"/>
	<path fill-rule="evenodd" clip-rule="evenodd" fill="#164678" d="M27.8,0.3c9,0.2,18.7-0.3,27.3,0.2c0,0.1,0,0.2,0,0.2
		c-0.4,0-0.2,0.6-0.2,1C51.4,3.7,47,4.8,41.9,5.1C36,4.7,30.5,3.9,27.8,0.3z"/>
	<path fill-rule="evenodd" clip-rule="evenodd" fill="#5CC6FD" d="M55.9,3.9c1.2-0.4,4.1-0.4,5.3,0C59.5,3.9,57.7,3.9,55.9,3.9z"/>
	<path fill-rule="evenodd" clip-rule="evenodd" fill="#164678" d="M47.7,7.5c-1,0.8-1.6-0.4-2.7-0.2C44.7,5.6,48.2,5.7,47.7,7.5z"/>
	<path fill-rule="evenodd" clip-rule="evenodd" fill="#5CC6FD" d="M55.7,6.3c1.3-0.4,4.3-0.4,5.6,0C59.4,6.3,57.5,6.3,55.7,6.3z"/>
	<path fill-rule="evenodd" clip-rule="evenodd" fill="#164678" d="M38,8c-0.8,0.2-2.2,0.7-2.9,0.2C34.9,6.2,38,6,38,8z"/>
	<path fill-rule="evenodd" clip-rule="evenodd" fill="#164678" d="M42.1,11.7c1,0,1.7,0.2,2.2,0.7c-0.1,1.4-1.3,0.2-2.4,0.5
		c-0.5,0.2-0.9,0.5-1.7,0.5C40,12,41.4,12.2,42.1,11.7z"/>
	<path fill-rule="evenodd" clip-rule="evenodd" fill="#5CC6FD" d="M0,36.6c1.2-1.3,2.5-5.2,5.3-4.6c1.3,0.3,1.5,2.4,2.4,3.1
		c2.6,2.3,5.8-0.8,7.7-2.7c5.4-5,8.5-10.3,11.4-17.2c2.3,0.2,5.3-0.3,7.3,0.2c-1.2,0-2.4,0-3.6,0c0,12.1,0,24.2,0,36.3
		c-1.1,0-2.3,0-3.4,0c-0.1,0-0.2,0-0.2,0c0-7.8,0-15.7,0-23.5c-3.1,4.2-14.3,14.5-21.1,7.5c-2,0.7-2.8,2.5-5.3,2.7
		C0.4,38.3,0.2,38.1,0,38C0,37.6,0,37.1,0,36.6z"/>
	<path fill-rule="evenodd" clip-rule="evenodd" fill="#164678" d="M34.4,15.5c0.6,0.1,0.9,0,1.2-0.2c1.8,0.6,3.4,1.5,6.1,1.2
		c2.1,0.1,3.4-0.5,4.8-1c-0.9,2.3-3.7,4.7-5.3,7c0,9.7,0,19.4,0,29c4.4,0.6,9.8,0.1,14.5,0.2c0,14.4,0,28.7,0,43.1
		c-0.1,1,1.9,0.1,1.9,1c-0.6,1.4-4.2,0.7-5.6,0.5c-0.1-0.3-0.3-0.1-0.5,0c-0.2,0-0.3,0-0.5,0c-0.6-8.8-0.1-18.6-0.2-27.8
		c-3.1,0-6.3,0-9.4,0c-2.9-0.4-7.5-0.4-10.4,0c-0.6,8.6-0.1,18.1-0.2,27.1c-0.5,0.6-2.4-0.2-2.9,0.5c-0.2,0-0.5,0-0.7,0
		c-0.8-0.7-3.1,0.2-3.9-0.5c0.3-1.1,2.9,0,3.6-0.7c0.6-13.9,0.1-28.8,0.2-43.1c1.1,0,2.3,0,3.4,0c3.1,0,6.3,0,9.4,0
		c0-9.5,0-19,0-28.6C38.1,20.7,36.1,18.3,34.4,15.5z"/>
	<path fill-rule="evenodd" clip-rule="evenodd" fill="#0698E4" d="M34.1,15.5c0.1,0,0.2,0,0.2,0c1.7,2.7,3.7,5.1,5.6,7.7
		c0,9.5,0,19,0,28.6c-3.1,0-6.3,0-9.4,0c0-12.1,0-24.2,0-36.3C31.7,15.5,32.9,15.5,34.1,15.5z"/>
	<path fill-rule="evenodd" clip-rule="evenodd" fill="#EBDFD1" d="M55.7,51.8c0-0.1,0-0.2,0-0.2c0.1,0,0.2,0,0.2,0
		c0,14.4,0,28.9,0,43.3c1.1,0.1,2.7,0.8,1.5,1.9c-1.7,0-3.4,0-5.1,0c0-0.2-0.2-0.2-0.2-0.5c1.4,0.2,5,0.9,5.6-0.5
		c-0.1-0.9-2,0.1-1.9-1C55.7,80.6,55.7,66.2,55.7,51.8z"/>
	<path fill-rule="evenodd" clip-rule="evenodd" fill="#F3F3F3" d="M55.7,51.6c0-9.9,0-19.8,0-29.8c0.2-0.1,0.4-0.2,0.5-0.5
		c2.7-1.1,4.9-2.7,7-4.4c0.1,0,0.2,0,0.2,0c1-0.8,1.9-1.7,2.7-2.7c0-0.1,0-0.2,0-0.2c3.9-3.8,1-10.5-4.8-10.2
		c-1.2-0.4-4.1-0.4-5.3,0c-0.1,0-0.2,0-0.2,0c-1.7,0.3-0.3-1.1-0.7-2.2c0-0.4-0.1-0.9,0.2-1c0,0.1,0,0.2,0,0.2
		c-0.1,0.9,0.2,2.1-0.2,2.7c6.5-1,12.9,0.4,13.3,5.3c0.6,7.5-8.4,9.7-12.3,13.3c0,9.8,0,19.5,0,29.3C55.8,51.6,55.7,51.6,55.7,51.6z
		"/>
	<path fill-rule="evenodd" clip-rule="evenodd" fill="#F3F3F3" d="M0,36.1c1.5-1.5,2.5-4.8,5.3-4.4c1.4,0.2,1,1.3,1.9,2.4
		c2.6,3.1,6,0.3,8.5-1.9c5.4-5,7.9-10.9,11.4-17.2c2.3,0,4.7,0,7,0c-3.3-2.8-7.8-7.9-6.8-15c0.1,0,0.2,0,0.2,0c0,0.1,0,0.2,0,0.2
		c-0.4,0.3-0.4,2.3,0,2.7c0.7,6.1,3.8,9.8,8,12.3c-0.3,0.2-0.6,0.3-1.2,0.2c-0.1,0-0.2,0-0.2,0c-1.9-0.6-4.9-0.1-7.3-0.2
		c-2.9,6.9-5.9,12.2-11.4,17.2c-2,1.8-5.1,5-7.7,2.7c-0.9-0.8-1.1-2.9-2.4-3.1c-2.8-0.6-4.1,3.3-5.3,4.6C0,36.4,0,36.3,0,36.1z"/>
	<path fill-rule="evenodd" clip-rule="evenodd" fill="#EBDFD1" d="M27.6,0.3c0-0.1,0-0.2,0-0.2c9.2,0.2,19-0.3,27.8,0.2
		c0,0.3,0,0.7-0.2,0.7c0-0.1,0-0.2,0-0.2c0-0.1,0-0.2,0-0.2C46.5,0,36.9,0.4,27.8,0.3C27.8,0.3,27.7,0.3,27.6,0.3z"/>
	<path fill-rule="evenodd" clip-rule="evenodd" fill="#0698E4" d="M35.6,15.3c-4.2-2.6-7.3-6.2-8-12.3c0-0.9,0-1.8,0-2.7
		c0.1,0,0.2,0,0.2,0c2.7,3.6,8.1,4.4,14,4.8c-0.2,1.6-0.7,5.4,0.2,6.5c-0.7,0.5-2.1,0.3-1.9,1.7c0.8,0,1.2-0.3,1.7-0.5
		c-0.5,0.8-0.1,2.5-0.2,3.6C39,16.7,37.4,15.9,35.6,15.3z M35.1,8.3C35.8,8.8,37.2,8.2,38,8C38,6,34.9,6.2,35.1,8.3z"/>
	<path fill-rule="evenodd" clip-rule="evenodd" fill="#F3F3F3" d="M56.1,15.3c-3,0-6,0-9,0c2.8-2.4,5.7-4.7,6.8-8.7
		c0.4-0.1,1.4,0.3,1.5-0.2c0.1,0,0.2,0,0.2,0c1.9,0,3.7,0,5.6,0c1.2,0.4,2.5,0.6,2.9,1.7C62.9,11.9,59.4,13.5,56.1,15.3z M54.2,6.8
		c-0.7,1.5-1.3,3.2-2.4,4.6c-1,1.3-3.7,2.7-3.4,3.6c8.4,1,13.7-2.2,15.2-7.3C62,6,57.2,6.6,54.2,6.8z"/>
	<path fill-rule="evenodd" clip-rule="evenodd" fill="#5CC6FD" d="M54.9,1.7c0.4,1.1-1,2.5,0.7,2.2c0,0.3-0.4,0.2-0.7,0.2
		c-0.5,0.5-1.5,2.7,0.5,2.2c0,0.5-1,0.1-1.5,0.2c-1.1,4-4,6.4-6.8,8.7c3,0,6,0,9,0c-2.6,0.6-7.4,0-9.7,0.2c-1.5,0.4-2.8,1.1-4.8,1
		c0.1-1.2-0.3-2.8,0.2-3.6c1.1-0.3,2.3,0.9,2.4-0.5c-0.5-0.5-1.2-0.7-2.2-0.7c-1-1.2-0.5-5-0.2-6.5C47,4.8,51.4,3.7,54.9,1.7z
		 M45,7.3c1.1-0.2,1.7,1,2.7,0.2C48.2,5.7,44.7,5.6,45,7.3z"/>
	<path fill-rule="evenodd" clip-rule="evenodd" fill="#0698E4" d="M61.2,3.9c5.8-0.4,8.7,6.4,4.8,10.2c-1.1,0.9-2,1.8-2.9,2.9
		c-2.1,1.7-4.3,3.3-7,4.4c-0.3,0.1-0.4,0.4-0.7,0.5c0.2,9.8-0.3,20.3,0.2,29.8c0,0.1,0,0.2,0,0.2c-4.8-0.2-10.2,0.3-14.5-0.2
		c0-9.7,0-19.4,0-29c1.6-2.3,4.4-4.8,5.3-7c2.3-0.2,7,0.4,9.7-0.2c3.3-1.8,6.7-3.4,8-7.3c-0.4-1.1-1.7-1.3-2.9-1.7
		c-1.3-0.4-4.3-0.4-5.6,0c-0.1,0-0.2,0-0.2,0c-2,0.5-1-1.7-0.5-2.2c0.3,0,0.7,0,0.7-0.2c0.1,0,0.2,0,0.2,0
		C57.7,3.9,59.5,3.9,61.2,3.9z"/>
	<path fill-rule="evenodd" clip-rule="evenodd" fill="#5CC6FD" d="M63.2,17c0.9-1.1,1.8-2,2.9-2.9c0,0.1,0,0.2,0,0.2
		c-1,0.8-1.9,1.7-2.7,2.7C63.3,17,63.2,17,63.2,17z"/>
	<path fill-rule="evenodd" clip-rule="evenodd" fill="#5CC6FD" d="M55.7,51.6c-0.6-9.4-0.1-19.9-0.2-29.8c0.3-0.1,0.4-0.4,0.7-0.5
		c-0.1,0.3-0.3,0.4-0.5,0.5C55.7,31.7,55.7,41.7,55.7,51.6z"/>
	<path fill-rule="evenodd" clip-rule="evenodd" fill="#EBDFD1" d="M63.4,17c0.8-1,1.7-1.9,2.7-2.7C65.3,15.3,64.4,16.2,63.4,17z"/>
	<path fill-rule="evenodd" clip-rule="evenodd" fill="#F3F3F3" d="M0,38c0.2,0.1,0.4,0.2,0.5,0.5c2.5-0.1,3.4-2,5.3-2.7
		c6.8,7,18-3.3,21.1-7.5c0,7.8,0,15.7,0,23.5c-0.1,0-0.2,0-0.2,0c0-7.7,0-15.3,0-23c-3.1,4.1-14.1,14.2-20.8,7.3
		c-1.9,0.5-3.5,3.5-5.8,2.2C0,38.2,0,38.1,0,38z"/>
	<path fill-rule="evenodd" clip-rule="evenodd" fill="#999999" d="M27.8,96.1c0.5-0.7,2.4,0.1,2.9-0.5c0.2-9-0.3-18.6,0.2-27.1
		c2.9-0.4,7.5-0.4,10.4,0c-3.4,0-6.8,0-10.2,0c-0.7,8.6,0.2,18.8-0.5,27.3C30.2,96.3,28.8,96,27.8,96.1z"/>
	<path fill-rule="evenodd" clip-rule="evenodd" fill="#999999" d="M27.1,96.1c-1.4-0.1-3.4,0.4-4.1-0.5c0-0.1,0-0.2,0-0.2
		c0.6-0.8,2.4-0.4,3.6-0.5c0.6-13.9,0.1-28.8,0.2-43.1c0.1,0,0.2,0,0.2,0c-0.2,14.3,0.3,29.2-0.2,43.1c-0.7,0.7-3.3-0.4-3.6,0.7
		C24,96.3,26.3,95.4,27.1,96.1z"/>
	<path fill-rule="evenodd" clip-rule="evenodd" fill="#EBDFD1" d="M26.6,51.8c0.1,0,0.2,0,0.2,0c-0.2,14.3,0.3,29.2-0.2,43.1
		c-1.3,0.1-3.1-0.3-3.6,0.5c0.3-1.2,2.3-0.6,3.6-0.7C26.6,80.4,26.6,66.1,26.6,51.8z"/>
	<path fill-rule="evenodd" clip-rule="evenodd" fill="#EBDFD1" d="M27.8,96.1c1-0.1,2.3,0.2,2.9-0.2c0.7-8.6-0.2-18.8,0.5-27.3
		c3.4,0,6.8,0,10.2,0c3.1,0,6.3,0,9.4,0c0.2,9.2-0.3,19,0.2,27.8c0.2,0,0.3,0,0.5,0c-0.2,0.7-0.6-0.3-1-0.2c0-9.1,0-18.2,0-27.3
		c-6.5,0-12.9,0-19.4,0c-0.3,9,0.6,19.2-0.5,27.3c-2,0.2-6.5,0.9-7.7-0.5c0.7,0.9,2.7,0.4,4.1,0.5C27.3,96.1,27.6,96.1,27.8,96.1z"
		/>
</g>
</svg>
