<?xml version="1.0" encoding="utf-8"?>
<!-- Generator: Adobe Illustrator 18.0.0, SVG Export Plug-In . SVG Version: 6.00 Build 0)  -->
<!DOCTYPE svg PUBLIC "-//W3C//DTD SVG 1.1//EN" "http://www.w3.org/Graphics/SVG/1.1/DTD/svg11.dtd">
<svg version="1.1" id="Layer_1" xmlns="http://www.w3.org/2000/svg" xmlns:xlink="http://www.w3.org/1999/xlink" x="0px" y="0px"
	 viewBox="0 0 151.6 159.1" enable-background="new 0 0 151.6 159.1" xml:space="preserve">
<g>
	<g>
		<path fill-rule="evenodd" clip-rule="evenodd" fill="#0698E4" d="M89.5,66.5c0.1,0,0.2,0,0.2,0c1.4,0.7,2.5,6.1,3.2,8.7
			c2.6,8.8,5.8,16.8,9.4,24c2.5,5,4.9,10.3,7.9,14.4c3.4,4.6,6.1,9.5,6.7,15.6c0,1.6,0,3.3,0,4.9c-2.3,14.4-10.5,22.9-25,25
			c-1.2,0-2.5,0-3.7,0c-14.5-2.1-22.7-10.6-25-25c0-1.6,0-3.3,0-4.9c0.4-5.7,3.4-10.7,6.4-15.8C78.2,99.1,83.9,82.8,89.5,66.5z
			 M76.9,147.5c4,1.8,7.2-0.6,7.7-3.5c1-5.9-3.4-14.7-7.2-15.6c-0.9-0.2-2.2,0.1-3,0.2C66.6,130.5,72.6,145.5,76.9,147.5z"/>
		<path fill-rule="evenodd" clip-rule="evenodd" fill="#5BC7FF" d="M74.4,128.6c0.7-0.2,2.1-0.5,3-0.2c3.8,0.9,8.2,9.7,7.2,15.6
			c-0.5,2.9-3.7,5.3-7.7,3.5C72.6,145.5,66.6,130.5,74.4,128.6z"/>
	</g>
	<g>
		<path fill-rule="evenodd" clip-rule="evenodd" fill="#0698E4" d="M14.4,56c0,0,0.1,0,0.1,0c0.7,0.4,1.4,3.3,1.8,4.8
			c1.4,4.8,3.2,9.2,5.2,13.2c1.4,2.8,2.7,5.6,4.3,7.9c1.9,2.5,3.4,5.2,3.7,8.6c0,0.9,0,1.8,0,2.7c-1.3,7.9-5.7,12.5-13.7,13.7
			c-0.7,0-1.4,0-2,0C5.7,105.6,1.3,100.9,0,93c0-0.9,0-1.8,0-2.7c0.2-3.1,1.9-5.9,3.5-8.7C8.2,73.8,11.3,64.9,14.4,56z M7.5,100.4
			c2.2,1,3.9-0.3,4.2-1.9c0.6-3.2-1.9-8.1-3.9-8.6c-0.5-0.1-1.2,0-1.6,0.1C1.9,91.1,5.2,99.3,7.5,100.4z"/>
		<path fill-rule="evenodd" clip-rule="evenodd" fill="#5BC7FF" d="M6.1,90c0.4-0.1,1.1-0.3,1.6-0.1c2.1,0.5,4.5,5.3,3.9,8.6
			c-0.3,1.6-2,2.9-4.2,1.9C5.2,99.3,1.9,91.1,6.1,90z"/>
	</g>
	<g>
		<path fill-rule="evenodd" clip-rule="evenodd" fill="#0698E4" d="M133.9,0c0.1,0,0.1,0,0.2,0c0.9,0.5,1.6,3.9,2.1,5.6
			c1.6,5.7,3.8,10.8,6.1,15.5c1.6,3.3,3.2,6.6,5.1,9.3c2.2,3,4,6.1,4.3,10.1c0,1.1,0,2.1,0,3.2c-1.5,9.3-6.8,14.8-16.1,16.1
			c-0.8,0-1.6,0-2.4,0c-9.4-1.4-14.7-6.9-16.1-16.1c0-1.1,0-2.1,0-3.2c0.2-3.7,2.2-6.9,4.2-10.2C126.6,21,130.3,10.5,133.9,0z
			 M125.7,52.3c2.6,1.2,4.6-0.4,5-2.2c0.7-3.8-2.2-9.5-4.6-10.1c-0.6-0.1-1.5,0-1.9,0.2C119.1,41.3,123,51,125.7,52.3z"/>
		<path fill-rule="evenodd" clip-rule="evenodd" fill="#5BC7FF" d="M124.1,40.1c0.5-0.1,1.3-0.3,1.9-0.2c2.4,0.6,5.3,6.3,4.6,10.1
			c-0.3,1.9-2.4,3.4-5,2.2C123,51,119.1,41.3,124.1,40.1z"/>
	</g>
</g>
</svg>
