<?xml version="1.0" encoding="utf-8"?>
<!-- Generator: Adobe Illustrator 18.0.0, SVG Export Plug-In . SVG Version: 6.00 Build 0)  -->
<!DOCTYPE svg PUBLIC "-//W3C//DTD SVG 1.1//EN" "http://www.w3.org/Graphics/SVG/1.1/DTD/svg11.dtd">
<svg version="1.1" id="Layer_1" xmlns="http://www.w3.org/2000/svg" xmlns:xlink="http://www.w3.org/1999/xlink" x="0px" y="0px"
	 viewBox="0 0 488.9 69.6" enable-background="new 0 0 488.9 69.6" xml:space="preserve">
<path fill-rule="evenodd" clip-rule="evenodd" fill="#ECECEC" d="M377.3,0.8c4.5,1.2,9.7,2.8,13.8,4.6c3.6,1.6,7.9,4,11.5,5.6
	c1.4,0.6,2.9,1.5,4.1,1.6c3,0.2,7.6-1.5,10.5-1.9c10.6-1.2,18.5-1.2,28.4,1.4c10.3,2.8,17.4,7.3,24.1,13.4
	c1.7,1.6,9.4,5.8,12.7,15.1c3,8.4,7.1,29.1,6.4,28.9l-180,0c0,0-199.5,0-299.3,0c-3.2,0-7.9,0.3-9.5-0.4C0,69,0,69,0,68.8
	c12.5-12.7,31.4-16.2,54.2-18.6c18.5-1.9,40.6-2.2,61.5-1.4c2.9,0.1,6.8,0.9,8.6,0.4c0.9-0.3,2.5-2.6,3.3-3.5
	c7.8-8.4,16.7-14.4,31.5-16c17.8-2,32.3,4.2,44.8,8.8c4.5-6.5,10.4-12.5,20-14.4c10.5-2.1,19.9,1.7,27.8,5.1
	c1.5-0.8,2.4-2.2,3.5-3.3c12.6-12.6,31.3-21.4,57.4-18.7c5.8,0.6,12,1.9,17.7,3.5c1.8,0.5,4.4,1.5,5.6,1.4c1.2-0.1,5.8-3.3,7.2-4.1
	c7.5-4.2,16.2-7.5,26.7-8.1C371.8,0.2,375.2,0.6,377.3,0.8z"/>
</svg>
