<?xml version="1.0" encoding="utf-8"?>
<!-- Generator: Adobe Illustrator 18.0.0, SVG Export Plug-In . SVG Version: 6.00 Build 0)  -->
<!DOCTYPE svg PUBLIC "-//W3C//DTD SVG 1.1//EN" "http://www.w3.org/Graphics/SVG/1.1/DTD/svg11.dtd">
<svg version="1.1" id="Layer_1" xmlns="http://www.w3.org/2000/svg" xmlns:xlink="http://www.w3.org/1999/xlink" x="0px" y="0px"
	 viewBox="0 0 154.9 64.9" enable-background="new 0 0 154.9 64.9" xml:space="preserve">
<g>
	<path fill-rule="evenodd" clip-rule="evenodd" fill="#2B6495" d="M23.1,5.9c14.7,0,29.3,0,44,0c-1.4,7-3.2,13.7-4.7,20.6
		c-15.2,0-30.5,0-45.7,0C18.7,19.5,20.5,12.3,23.1,5.9z M17,26.3c15.1,0,30.2,0,45.2,0c1.5-6.8,3-13.5,4.7-20.2c-14.5,0-29,0-43.5,0
		C20.7,12.4,19.2,19.7,17,26.3z"/>
	<path fill-rule="evenodd" clip-rule="evenodd" fill="#2B6495" d="M122.9,21.9c-6.4-4.3-12.9-10.5-18.9-16c4,0,8,0,12,0
		C118.3,11.2,120.5,16.7,122.9,21.9z M122.2,21.4c-2.1-5.2-4.3-10.1-6.4-15.2c-3.6,0.2-7.9-0.3-11.1,0.2
		C110.6,11.4,116.4,16.4,122.2,21.4z"/>
	<path fill-rule="evenodd" clip-rule="evenodd" fill="#294E6C" d="M23.4,6.1c14.5,0,29,0,43.5,0c-1.6,6.7-3.1,13.4-4.7,20.2
		c-15.1,0-30.2,0-45.2,0C19.2,19.7,20.7,12.4,23.4,6.1z"/>
	<path fill-rule="evenodd" clip-rule="evenodd" fill="#294E6C" d="M104.7,6.4c3.2-0.6,7.5-0.1,11.1-0.2c2.1,5.1,4.3,10.1,6.4,15.2
		C116.4,16.4,110.6,11.4,104.7,6.4z"/>
	<path fill-rule="evenodd" clip-rule="evenodd" fill="#2B6495" d="M100.1,7.4c0-0.2,0.1-0.2,0.2-0.2c7.6,6.3,15.3,12.6,22.4,19.4
		c-5.7,0-11.5,0-17.2,0C103.9,20,102.1,13.6,100.1,7.4z M105.7,26.3c5.4,0,10.8,0,16.2,0c-6.2-5.9-14.6-13.1-21.4-18.4
		C102.4,13.9,104.2,19.9,105.7,26.3z"/>
	<path fill-rule="evenodd" clip-rule="evenodd" fill="#0698E4" d="M26.1,46.2c4.1-0.6,6.3,1.8,6.9,3.4c3,8.4-10.2,10.5-11.6,3.4
		C20.6,49,23.2,46.6,26.1,46.2z"/>
	<path fill-rule="evenodd" clip-rule="evenodd" fill="#0698E4" d="M124.9,55.3c-2.1,6.2-13.5,3.7-11.6-3.9c0.3,0.2-0.4,1.3,0,1.9
		C113.9,54.1,123.7,55.4,124.9,55.3z"/>
	<path fill-rule="evenodd" clip-rule="evenodd" fill="#5BC7FF" d="M136.9,30.5c-22.2,0-44.4,0-66.6,0c1.2-4.6,2.1-9.6,3.2-14.7
		c1.1-5,2.1-10.1,3.2-15c0.2,0,0.2-0.3,0.2-0.5c0.1,0,0.2,0,0.2,0c1.4,0,2.8,0,4.2,0c1.5,0,3,0,4.4,0c1.4,0,2.8,0,4.2,0c1,0,2,0,3,0
		c1.4,0,2.8,0,4.2,0c0.8,0,1.6,0,2.5,0c1.4,0,2.8,0,4.2,0c1.1,0,2.1,0,3.2,0c1.4,0,2.8,0,4.2,0c1.4-0.2,3.4,0.3,4.4-0.2
		c3.6,0.6,13,26.5,14.7,28C131.7,29.2,137,30.5,136.9,30.5z M103.8,6.4c6.7,5.2,12.6,11.2,19.4,16.2c-2.1-5.9-4.6-11.4-7.1-17
		c-4.1,0-8.2,0-12.3,0C103.8,5.9,103.8,6.1,103.8,6.4z M111.9,16.5c-3.8-3.3-7.6-6.7-11.8-9.6c-0.2,0.1-0.3,0.2-0.2,0.5
		c2.1,6.2,3.7,13,5.7,19.4c5.8,0,11.6,0,17.5,0C119.7,23,115.7,19.7,111.9,16.5z"/>
	<path fill-rule="evenodd" clip-rule="evenodd" fill="#5BC7FF" d="M74.8,0.5c-2.5,12.8-5.3,25.3-8.1,37.9
		C46.2,38.5,25.2,38,5.2,38.6c0-0.2,0-0.5,0-0.7C8.9,25.6,12.1,12.6,16,0.5c0.4,0.1,0.4-0.2,0.7-0.2c6.4,0,12.8,0,19.2,0
		c1.2,0,2.5,0,3.7,0c1.4,0,2.8,0,4.2,0c1.3,0,2.6,0,3.9,0c1.4,0,2.8,0,4.2,0c1.4,0,2.8,0,4.2,0c1.4,0,2.8,0,4.2,0c1.2,0,2.5,0,3.7,0
		c1.4,0,2.8,0,4.2,0c1.6,0,3.3,0,4.9,0c0.6,0,1.1,0,1.7,0C74.8,0.3,74.8,0.4,74.8,0.5z M22.4,6.4c-1.9,6.9-4.3,13.3-5.9,20.4
		c15.3,0,30.6,0,46,0c1.9-6.7,3.3-13.9,4.9-20.9C53.1,5.3,37.8,5.8,23.1,5.7C22.8,5.8,22.5,6,22.4,6.4z"/>
	<path fill-rule="evenodd" clip-rule="evenodd" fill="#2B6495" d="M108.4,44.5c0.9-1.1,1.9-2.1,3-3
		C110.5,42.6,109.5,43.6,108.4,44.5z"/>
	<path fill-rule="evenodd" clip-rule="evenodd" fill="#2B6495" d="M16.5,44.2c0.8-1,1.7-1.9,2.7-2.7C18.4,42.5,17.5,43.5,16.5,44.2z
		"/>
	<path fill-rule="evenodd" clip-rule="evenodd" fill="#40AEE9" d="M23.1,5.7c14.7,0.2,30-0.3,44.2,0.2c-1.6,7-3,14.2-4.9,20.9
		c-15.3,0-30.6,0-46,0c1.6-7.2,4-13.5,5.9-20.4C22.5,6,22.8,5.8,23.1,5.7z M16.7,26.5c15.2,0,30.5,0,45.7,0
		c1.5-6.9,3.2-13.7,4.7-20.6c-14.7,0-29.3,0-44,0C20.5,12.3,18.7,19.5,16.7,26.5z"/>
	<path fill-rule="evenodd" clip-rule="evenodd" fill="#40AEE9" d="M103.8,5.7c4.1,0,8.2,0,12.3,0c2.5,5.6,5,11.1,7.1,17
		c-6.9-5-12.7-11.1-19.4-16.2C103.8,6.1,103.8,5.9,103.8,5.7z M116,5.9c-4,0-8,0-12,0c6,5.4,12.5,11.7,18.9,16
		C120.5,16.7,118.3,11.2,116,5.9z"/>
	<path fill-rule="evenodd" clip-rule="evenodd" fill="#40AEE9" d="M122.9,26.8c-5.8,0-11.6,0-17.5,0c-2-6.4-3.5-13.2-5.7-19.4
		c0-0.3,0.1-0.4,0.2-0.5c4.2,2.9,8,6.3,11.8,9.6C115.7,19.7,119.7,23,122.9,26.8z M105.5,26.5c5.7,0,11.5,0,17.2,0
		c-7.1-6.8-14.7-13.1-22.4-19.4c-0.2,0-0.3,0-0.2,0.2C102.1,13.6,103.9,20,105.5,26.5z"/>
	<path fill-rule="evenodd" clip-rule="evenodd" fill="#294E6C" d="M100.6,7.9c6.8,5.3,15.1,12.6,21.4,18.4c-5.4,0-10.8,0-16.2,0
		C104.2,19.9,102.4,13.9,100.6,7.9z"/>
	<path fill-rule="evenodd" clip-rule="evenodd" fill="#00366F" d="M132.8,53.8c-0.1,4.1-4.8,10.7-12.1,10.7c-6,0-13.8-2.5-14.7-12.4
		c-21.3-0.6-43.7-0.1-65.4-0.2c0,0,0.5,3.6-1.5,7.3c-2.1,3.2-4.2,5-12.3,5.2c-7.4-0.4-12.4-4.4-12.5-12.8
		c-3.9-1.1-11.1,1.1-13.8-1.2c-0.3-1.5,1.2-1.3,2-1.7H14c0.8-1.6,1.2-3.4,2.5-4.4c1-0.8,1.9-1.7,2.7-2.7c7.6-6,20.2-0.9,21.4,7.6
		h65.1c1.3-1.1,1.4-3.5,2.7-4.7c1.1-0.9,2.1-1.9,3-3c3.8-3.4,12.6-3.3,16.2,0.2c1,0.9,1.7,1.5,2.5,2.5c1,1,1.5,2.6,2.2,3.9
		c7.1,0,14.3,0,21.4,0c0.3,0,0.4,0.1,0.5,0.2c0.7,0.4,0.9,1.4,0.5,2.2c-6.8,0.6-14.7,0.1-21.9,0.2C132.8,51.4,132.9,52.7,132.8,53.8
		z M21.4,53.1c1.4,7.1,14.5,4.9,11.6-3.4c-0.6-1.6-2.8-4.1-6.9-3.4C23.2,46.7,20.6,49,21.4,53.1z M125.4,51.6
		c-0.3-6.7-11.6-6.9-12-0.2c0,0.1,0,0.2,0,0.2c-1.9,7.3,9.4,9.8,11.6,3.7C125.4,54.6,125.9,52.7,125.4,51.6z"/>
	<path fill-rule="evenodd" clip-rule="evenodd" fill="#0698E4" d="M113.3,51.2c0.5-6.6,11.8-6.5,12,0.2c-0.5-0.1-0.1-1.1-0.5-1.2
		C120.8,50.3,116.2,49.9,113.3,51.2z"/>
	<path fill-rule="evenodd" clip-rule="evenodd" fill="#5BC7FF" d="M152.2,38.3c-27.9,0-55.7,0-83.6,0c0.4-1.9,0.9-3.8,1.2-5.9
		c24-0.1,72.8-0.2,72.8-0.2c3.2,1.1,6.8,1.9,9.6,3.4C152.2,36.7,152.2,38.3,152.2,38.3z"/>
	<path fill-rule="evenodd" clip-rule="evenodd" fill="#0698E4" d="M2,48.7c1.1-3.3,2-6.9,3.2-10.1c20-0.6,41.1-0.1,61.5-0.2
		c2.8-12.5,5.6-25.3,8.1-38.1H77c-1.1,4.9-2.4,10.5-3.4,15.5c-1.1,5.1-2,10.1-3.2,14.7c22.2,0,44.4,0,66.6,0c2.2,0.6,3.5,1,5.7,1.7
		c-24,0-48.8,0.2-72.8,0.2c-0.3,2.1-0.8,4-1.2,5.9c27.9,0,55.7,0,83.6,0c0.4,3.8,0.5,6.9,1.5,9.6c0,0.1,0,0.2,0,0.2
		c-7.1,0-14.3,0-21.4,0c-0.7-1.4-1.2-2.9-2.2-3.9c-0.7-0.9-1.5-1.7-2.5-2.5c-3.6-3.5-12.4-3.7-16.2-0.2c-1.1,0.9-2.1,1.9-3,3
		c-1.3,1.1-1.4,3.5-2.7,4.7c-21.7,0-43.4,0-65.1,0c-1.2-8.6-13.8-13.6-21.4-7.6c-1,0.8-1.9,1.7-2.7,2.7c-1.2,1.1-1.4,3.2-2.5,4.4
		c-3.9,0-7.7,0-11.6,0C2.3,48.7,2.1,48.7,2,48.7z"/>
	<path fill-rule="evenodd" clip-rule="evenodd" fill="#40AEE9" d="M125.4,51.4c0.5,1.1,0.1,3.2-0.5,4c-1.2,0.1-11-1.2-11.6-2.2
		c-0.4-0.6,0.3-1.7,0-1.9c0-0.1,0-0.2,0-0.3c2.9-1.4,7.4-1,11.6-1.1C125.3,50.2,124.9,51.3,125.4,51.4z"/>
</g>
</svg>
