<?xml version="1.0" encoding="utf-8"?>
<!-- Generator: Adobe Illustrator 18.0.0, SVG Export Plug-In . SVG Version: 6.00 Build 0)  -->
<!DOCTYPE svg PUBLIC "-//W3C//DTD SVG 1.1//EN" "http://www.w3.org/Graphics/SVG/1.1/DTD/svg11.dtd">
<svg version="1.1" id="Layer_1" xmlns="http://www.w3.org/2000/svg" xmlns:xlink="http://www.w3.org/1999/xlink" x="0px" y="0px"
	 viewBox="0 0 106.5 40.8" enable-background="new 0 0 106.5 40.8" xml:space="preserve">
<g>
	<path fill-rule="evenodd" clip-rule="evenodd" fill="#40AEE9" d="M65.9,1c0.1,0,0.3,0,0.2,0.2c0,0.4-0.1,0.9,0.2,1
		c1.8,7.4,6.3,12.1,12.4,15.3c0.1,0.3,0.5,0.2,0.5,0.5C72.4,14.9,67.3,8.8,65.9,1z"/>
	<path fill-rule="evenodd" clip-rule="evenodd" fill="#40AEE9" d="M61.8,18.7c0.8-0.2,2.1,1.1,2.9,1.7c-1-0.3-1.6-1.2-2.7-1.5
		c-0.2,4.8,0.3,10.2-0.2,14.6C61.8,28.6,61.8,23.6,61.8,18.7z"/>
	<path fill-rule="evenodd" clip-rule="evenodd" fill="#40AEE9" d="M37.5,1.9c0.1,0,0.3,0,0.2,0.2c0,0.4-0.1,0.9,0.2,1
		c1.8,7.4,6.3,12.1,12.4,15.3c0.1,0.3,0.5,0.2,0.5,0.5C44,15.9,38.9,9.7,37.5,1.9z"/>
	<path fill-rule="evenodd" clip-rule="evenodd" fill="#40AEE9" d="M33.4,19.7c0.8-0.2,2.1,1.1,2.9,1.7c-1-0.3-1.6-1.2-2.7-1.5
		c-0.2,4.8,0.3,10.2-0.2,14.6C33.4,29.5,33.4,24.6,33.4,19.7z"/>
	<path fill-rule="evenodd" clip-rule="evenodd" fill="#40AEE9" d="M92.4,1.9c0.1,0,0.3,0,0.2,0.2c0,0.4-0.1,0.9,0.2,1
		c1.8,7.4,6.3,12.1,12.4,15.3c0.1,0.3,0.5,0.2,0.5,0.5C98.8,15.9,93.7,9.7,92.4,1.9z"/>
	<path fill-rule="evenodd" clip-rule="evenodd" fill="#40AEE9" d="M88.2,19.7c0.8-0.2,2.1,1.1,2.9,1.7c-1-0.3-1.6-1.2-2.7-1.5
		c-0.2,4.8,0.3,10.2-0.2,14.6C88.2,29.5,88.2,24.6,88.2,19.7z"/>
	<path fill-rule="evenodd" clip-rule="evenodd" fill="#2B6495" d="M66.2,1.2c4.7,5.2,9.2,10.7,13.8,16c-0.1,0.3-0.4,0.6-0.7,0.7
		c0-0.3-0.4-0.2-0.5-0.5c0.3,0,0.6,0,1,0c-4.1-5.5-9-10.3-13.1-15.8c-0.2,0-0.2,0.3-0.2,0.5C66,2.1,66.2,1.6,66.2,1.2z"/>
	<path fill-rule="evenodd" clip-rule="evenodd" fill="#00366F" d="M78.8,17.5c-6.1-3.1-10.6-7.8-12.4-15.3c0.1-0.2,0-0.5,0.2-0.5
		c4.1,5.5,9,10.3,13.1,15.8C79.4,17.5,79.1,17.5,78.8,17.5z"/>
	<path fill-rule="evenodd" clip-rule="evenodd" fill="#2B6495" d="M37.8,2.2c4.7,5.2,9.2,10.7,13.8,16c-0.1,0.4-0.4,0.6-0.7,0.7
		c0-0.3-0.4-0.2-0.5-0.5c0.3,0,0.6,0,1,0c-4.1-5.5-9-10.3-13.1-15.8C38,2.7,38.1,3,38,3.2C37.7,3.1,37.8,2.6,37.8,2.2z"/>
	<path fill-rule="evenodd" clip-rule="evenodd" fill="#2B6495" d="M92.6,2.2c4.7,5.2,9.2,10.7,13.8,16c-0.1,0.4-0.4,0.6-0.7,0.7
		c0-0.3-0.4-0.2-0.5-0.5c0.3,0,0.6,0,1,0c-4.1-5.5-9-10.3-13.1-15.8c-0.2,0-0.2,0.3-0.2,0.5C92.5,3.1,92.6,2.6,92.6,2.2z"/>
	<path fill-rule="evenodd" clip-rule="evenodd" fill="#00366F" d="M50.4,18.4C44.3,15.3,39.8,10.6,38,3.2c0.1-0.2,0-0.5,0.2-0.5
		c4.1,5.5,9,10.3,13.1,15.8C51,18.4,50.7,18.4,50.4,18.4z"/>
	<path fill-rule="evenodd" clip-rule="evenodd" fill="#00366F" d="M105.2,18.4c-6.1-3.1-10.6-7.8-12.4-15.3c0.1-0.2,0-0.5,0.2-0.5
		c4.1,5.5,9,10.3,13.1,15.8C105.9,18.4,105.6,18.4,105.2,18.4z"/>
	<path fill-rule="evenodd" clip-rule="evenodd" fill="#40AEE9" d="M73.4,17.7c-0.3,1.4-4,0.9-4.1-0.2c0-0.2,0-0.5,0-0.7
		C70.6,16.3,73.1,16.5,73.4,17.7z M71.5,17c-3.5-1-1.1,2.3,1.7,1.2c0.1-0.6,0.1-1.2-0.7-1C72.4,16.9,71.9,17,71.5,17z"/>
	<path fill-rule="evenodd" clip-rule="evenodd" fill="#2B6495" d="M72.5,17.2c0.8-0.2,0.8,0.3,0.7,1C70.4,19.3,68,16,71.5,17
		c-0.5,0.1-1.6-0.3-1.7,0.2c0,1.1,2.5,0.9,3.2,0.5C72.9,17.5,72.5,17.6,72.5,17.2z"/>
	<path fill-rule="evenodd" clip-rule="evenodd" fill="#40AEE9" d="M45,18.7c-0.3,1.4-4,0.9-4.1-0.2c0-0.2,0-0.5,0-0.7
		C42.2,17.2,44.7,17.5,45,18.7z M43.1,18c-3.5-1-1.1,2.3,1.7,1.2c0.1-0.6,0.1-1.2-0.7-1C44,17.8,43.5,18,43.1,18z"/>
	<path fill-rule="evenodd" clip-rule="evenodd" fill="#40AEE9" d="M99.9,18.7c-0.3,1.4-4,0.9-4.1-0.2c0-0.2,0-0.5,0-0.7
		C97,17.2,99.5,17.5,99.9,18.7z M98,18c-3.5-1-1.1,2.3,1.7,1.2c0.1-0.6,0.1-1.2-0.7-1C98.9,17.8,98.3,18,98,18z"/>
	<path fill-rule="evenodd" clip-rule="evenodd" fill="#2B6495" d="M44.1,18.2c0.8-0.2,0.8,0.3,0.7,1C42,20.3,39.6,17,43.1,18
		c-0.5,0.1-1.6-0.3-1.7,0.2c0,1.1,2.5,0.9,3.2,0.5C44.5,18.4,44.1,18.5,44.1,18.2z"/>
	<path fill-rule="evenodd" clip-rule="evenodd" fill="#2B6495" d="M98.9,18.2c0.8-0.2,0.8,0.3,0.7,1C96.8,20.3,94.5,17,98,18
		c-0.5,0.1-1.6-0.3-1.7,0.2c0,1.1,2.5,0.9,3.2,0.5C99.4,18.4,98.9,18.5,98.9,18.2z"/>
	<path fill-rule="evenodd" clip-rule="evenodd" fill="#40AEE9" d="M70.8,21.6c0.1,0,0.2,0,0.2,0c0.3,3.7-0.6,8.5,0.5,11.4
		C69.9,30.6,71.2,25.2,70.8,21.6z"/>
	<path fill-rule="evenodd" clip-rule="evenodd" fill="#0698E4" d="M71.5,33c1,1,1.8,2.3,2.7,3.4c0.1,0,0.2,0,0.2,0
		c0.9-0.2,1.8-2.1,2.7-0.7c-0.6,1.5-1.8,2.4-3.4,2.9c-0.4-0.3-0.8-0.6-1.2-1c-1.7-1.7-5-6.8-8.3-3.9c-1.2,2.3-2.2,4.9-4.6,6.1
		c-1.1-2.1,1.2-4.7,2.2-6.3c0.6-4.4,0.1-9.8,0.2-14.6c1.1,0.3,1.6,1.1,2.7,1.5c1.6,0.8,3.6,1.2,6.1,1.2C71.2,25.2,69.9,30.6,71.5,33
		z M65.7,29.1c-0.6-2.6,1.4-6.3-1-7c-1.5,1.3-0.4,5.1-0.7,7.5c0,0.6,0.4,0.9,1,1C65.2,30.1,65.7,29.9,65.7,29.1z"/>
	<path fill-rule="evenodd" clip-rule="evenodd" fill="#40AEE9" d="M72.5,37.6c-2.6-1.6-3-5.2-8-4.4c-0.1,0.2,0,0.5-0.2,0.5
		C67.5,30.9,70.8,36,72.5,37.6z"/>
	<path fill-rule="evenodd" clip-rule="evenodd" fill="#40AEE9" d="M42.4,22.6c0.1,0,0.2,0,0.2,0c0.3,3.7-0.6,8.5,0.5,11.4
		C41.5,31.5,42.8,26.2,42.4,22.6z"/>
	<path fill-rule="evenodd" clip-rule="evenodd" fill="#0698E4" d="M43.1,34c1,1,1.8,2.3,2.7,3.4c0.1,0,0.2,0,0.2,0
		c0.9-0.2,1.8-2.1,2.7-0.7c-0.6,1.5-1.8,2.4-3.4,2.9c-0.4-0.3-0.8-0.6-1.2-1c-1.7-1.7-5-6.8-8.3-3.9c-1.2,2.3-2.2,4.9-4.6,6.1
		c-1.1-2.1,1.2-4.7,2.2-6.3c0.6-4.4,0.1-9.8,0.2-14.6c1.1,0.3,1.6,1.1,2.7,1.5c1.6,0.8,3.6,1.2,6.1,1.2C42.8,26.2,41.5,31.5,43.1,34
		z M37.3,30.1c-0.6-2.6,1.4-6.3-1-7c-1.5,1.3-0.4,5.1-0.7,7.5c0,0.6,0.4,0.9,1,1C36.8,31,37.3,30.8,37.3,30.1z"/>
	<path fill-rule="evenodd" clip-rule="evenodd" fill="#40AEE9" d="M44.1,38.6c-2.6-1.6-3-5.2-8-4.4c-0.1,0.2,0,0.5-0.2,0.5
		C39.1,31.8,42.4,36.9,44.1,38.6z"/>
	<path fill-rule="evenodd" clip-rule="evenodd" fill="#40AEE9" d="M97.2,22.6c0.1,0,0.2,0,0.2,0c0.3,3.7-0.6,8.5,0.5,11.4
		C96.3,31.5,97.7,26.2,97.2,22.6z"/>
	<path fill-rule="evenodd" clip-rule="evenodd" fill="#0698E4" d="M98,34c1,1,1.8,2.3,2.7,3.4c0.1,0,0.2,0,0.2,0
		c0.9-0.2,1.8-2.1,2.7-0.7c-0.6,1.5-1.8,2.4-3.4,2.9c-0.4-0.3-0.8-0.6-1.2-1c-1.7-1.7-5-6.8-8.3-3.9c-1.2,2.3-2.2,4.9-4.6,6.1
		c-1.1-2.1,1.2-4.7,2.2-6.3c0.6-4.4,0.1-9.8,0.2-14.6c1.1,0.3,1.6,1.1,2.7,1.5c1.6,0.8,3.6,1.2,6.1,1.2C97.7,26.2,96.3,31.5,98,34z
		 M92.1,30.1c-0.6-2.6,1.4-6.3-1-7c-1.5,1.3-0.4,5.1-0.7,7.5c0,0.6,0.4,0.9,1,1C91.6,31,92.1,30.8,92.1,30.1z"/>
	<path fill-rule="evenodd" clip-rule="evenodd" fill="#40AEE9" d="M98.9,38.6c-2.6-1.6-3-5.2-8-4.4c-0.1,0.2,0,0.5-0.2,0.5
		C94,31.8,97.3,36.9,98.9,38.6z"/>
	<path fill-rule="evenodd" clip-rule="evenodd" fill="#40AEE9" d="M64,29.6c0.6,1.3,1.3,0.3,1.7-0.5c0,0.7-0.5,0.9-0.7,1.5
		C64.3,30.6,64,30.2,64,29.6z"/>
	<path fill-rule="evenodd" clip-rule="evenodd" fill="#5BC7FF" d="M64,29.6c0.3-2.4-0.7-6.2,0.7-7.5c2.4,0.8,0.4,4.4,1,7
		C65.3,29.9,64.6,30.9,64,29.6z"/>
	<path fill-rule="evenodd" clip-rule="evenodd" fill="#40AEE9" d="M35.6,30.6c0.6,1.3,1.3,0.3,1.7-0.5c0,0.7-0.5,0.9-0.7,1.5
		C35.9,31.5,35.6,31.2,35.6,30.6z"/>
	<path fill-rule="evenodd" clip-rule="evenodd" fill="#5BC7FF" d="M35.6,30.6c0.3-2.4-0.7-6.2,0.7-7.5c2.4,0.8,0.4,4.4,1,7
		C36.9,30.9,36.2,31.9,35.6,30.6z"/>
	<path fill-rule="evenodd" clip-rule="evenodd" fill="#40AEE9" d="M90.4,30.6c0.6,1.3,1.3,0.3,1.7-0.5c0,0.7-0.5,0.9-0.7,1.5
		C90.8,31.5,90.5,31.2,90.4,30.6z"/>
	<path fill-rule="evenodd" clip-rule="evenodd" fill="#5BC7FF" d="M90.4,30.6c0.3-2.4-0.7-6.2,0.7-7.5c2.4,0.8,0.4,4.4,1,7
		C91.7,30.9,91,31.9,90.4,30.6z"/>
	<path fill-rule="evenodd" clip-rule="evenodd" fill="#00366F" d="M71.5,17c0.4,0,0.9-0.1,1,0.2c0,0.3,0.4,0.2,0.5,0.5
		c-0.6,0.4-3.2,0.6-3.2-0.5C69.9,16.7,71,17.1,71.5,17z"/>
	<path fill-rule="evenodd" clip-rule="evenodd" fill="#00366F" d="M43.1,18c0.4,0,0.9-0.1,1,0.2c0,0.3,0.4,0.2,0.5,0.5
		c-0.6,0.4-3.2,0.6-3.2-0.5C41.5,17.7,42.6,18.1,43.1,18z"/>
	<path fill-rule="evenodd" clip-rule="evenodd" fill="#00366F" d="M98,18c0.4,0,0.9-0.1,1,0.2c0,0.3,0.4,0.2,0.5,0.5
		c-0.6,0.4-3.2,0.6-3.2-0.5C96.4,17.7,97.5,18.1,98,18z"/>
	<path fill-rule="evenodd" clip-rule="evenodd" fill="#5BC7FF" d="M70.8,21.6c-2.5,0-4.5-0.4-6.1-1.2c-0.8-0.6-2.1-1.9-2.9-1.7
		c-0.1-0.3-0.3-0.4-0.5-0.5c-5.7-5-3.2-16.8,4.1-18.2c0.1,0.4,0.4,0.6,0.5,1c1.3,7.8,6.4,14,13.3,17c-0.1,0.3-0.4,0.4-0.5,0.7
		c-2,1.4-4.2,2.4-7,2.9c-0.2,0-0.5,0-0.7,0C70.9,21.6,70.9,21.6,70.8,21.6z M69.3,16.7c0,0.2,0,0.5,0,0.7c0.1,1.1,3.8,1.6,4.1,0.2
		C73.1,16.5,70.6,16.3,69.3,16.7z"/>
	<path fill-rule="evenodd" clip-rule="evenodd" fill="#5BC7FF" d="M42.4,22.6c-2.5,0-4.5-0.4-6.1-1.2c-0.8-0.6-2.1-1.9-2.9-1.7
		c-0.1-0.3-0.3-0.4-0.5-0.5C27.3,14.2,29.7,2.3,37,1c0.1,0.4,0.4,0.6,0.5,1c1.3,7.8,6.4,14,13.3,17c-0.1,0.3-0.4,0.4-0.5,0.7
		c-2,1.4-4.2,2.4-7,2.9c-0.2,0-0.5,0-0.7,0C42.5,22.6,42.5,22.6,42.4,22.6z M40.9,17.7c0,0.2,0,0.5,0,0.7c0.1,1.1,3.8,1.6,4.1,0.2
		C44.7,17.5,42.2,17.2,40.9,17.7z"/>
	<path fill-rule="evenodd" clip-rule="evenodd" fill="#40AEE9" d="M7.7,1.9C7.9,2,8,2,8,2.2c0,0.4-0.1,0.9,0.2,1
		c1.8,7.4,6.3,12.1,12.4,15.3c0.1,0.3,0.5,0.2,0.5,0.5C14.2,15.9,9.1,9.7,7.7,1.9z"/>
	<path fill-rule="evenodd" clip-rule="evenodd" fill="#40AEE9" d="M3.6,19.7c0.8-0.2,2.1,1.1,2.9,1.7c-1-0.3-1.6-1.2-2.7-1.5
		c-0.2,4.8,0.3,10.2-0.2,14.6C3.6,29.5,3.6,24.6,3.6,19.7z"/>
	<path fill-rule="evenodd" clip-rule="evenodd" fill="#2B6495" d="M8,2.2c4.7,5.2,9.2,10.7,13.8,16c-0.1,0.4-0.4,0.6-0.7,0.7
		c0-0.3-0.4-0.2-0.5-0.5c0.3,0,0.6,0,1,0c-4.1-5.5-9-10.3-13.1-15.8C8.2,2.7,8.3,3,8.2,3.2C7.9,3.1,8,2.6,8,2.2z"/>
	<path fill-rule="evenodd" clip-rule="evenodd" fill="#00366F" d="M20.6,18.4C14.5,15.3,10,10.6,8.2,3.2c0.1-0.2,0-0.5,0.2-0.5
		c4.1,5.5,9,10.3,13.1,15.8C21.2,18.4,20.9,18.4,20.6,18.4z"/>
	<path fill-rule="evenodd" clip-rule="evenodd" fill="#40AEE9" d="M15.3,18.7c-0.3,1.4-4,0.9-4.1-0.2c0-0.2,0-0.5,0-0.7
		C12.4,17.2,14.9,17.5,15.3,18.7z M13.3,18c-3.5-1-1.1,2.3,1.7,1.2c0.1-0.6,0.1-1.2-0.7-1C14.2,17.8,13.7,18,13.3,18z"/>
	<path fill-rule="evenodd" clip-rule="evenodd" fill="#2B6495" d="M14.3,18.2c0.8-0.2,0.8,0.3,0.7,1c-2.8,1.1-5.2-2.2-1.7-1.2
		c-0.5,0.1-1.6-0.3-1.7,0.2c0,1.1,2.5,0.9,3.2,0.5C14.7,18.4,14.3,18.5,14.3,18.2z"/>
	<path fill-rule="evenodd" clip-rule="evenodd" fill="#40AEE9" d="M12.6,22.6c0.1,0,0.2,0,0.2,0c0.3,3.7-0.6,8.5,0.5,11.4
		C11.7,31.5,13,26.2,12.6,22.6z"/>
	<path fill-rule="evenodd" clip-rule="evenodd" fill="#0698E4" d="M13.3,34c1,1,1.8,2.3,2.7,3.4c0.1,0,0.2,0,0.2,0
		c0.9-0.2,1.8-2.1,2.7-0.7c-0.6,1.5-1.8,2.4-3.4,2.9c-0.4-0.3-0.8-0.6-1.2-1c-1.7-1.7-5-6.8-8.3-3.9c-1.2,2.3-2.2,4.9-4.6,6.1
		c-1.1-2.1,1.2-4.7,2.2-6.3c0.6-4.4,0.1-9.8,0.2-14.6c1.1,0.3,1.6,1.1,2.7,1.5c1.6,0.8,3.6,1.2,6.1,1.2C13,26.2,11.7,31.5,13.3,34z
		 M7.5,30.1c-0.6-2.6,1.4-6.3-1-7c-1.5,1.3-0.4,5.1-0.7,7.5c0,0.6,0.4,0.9,1,1C7,31,7.5,30.8,7.5,30.1z"/>
	<path fill-rule="evenodd" clip-rule="evenodd" fill="#40AEE9" d="M14.3,38.6c-2.6-1.6-3-5.2-8-4.4c-0.1,0.2,0,0.5-0.2,0.5
		C9.3,31.8,12.6,36.9,14.3,38.6z"/>
	<path fill-rule="evenodd" clip-rule="evenodd" fill="#40AEE9" d="M5.8,30.6c0.6,1.3,1.3,0.3,1.7-0.5c0,0.7-0.5,0.9-0.7,1.5
		C6.1,31.5,5.8,31.2,5.8,30.6z"/>
	<path fill-rule="evenodd" clip-rule="evenodd" fill="#5BC7FF" d="M5.8,30.6c0.3-2.4-0.7-6.2,0.7-7.5c2.4,0.8,0.4,4.4,1,7
		C7.1,30.9,6.4,31.9,5.8,30.6z"/>
	<path fill-rule="evenodd" clip-rule="evenodd" fill="#00366F" d="M13.3,18c0.4,0,0.9-0.1,1,0.2c0,0.3,0.4,0.2,0.5,0.5
		c-0.6,0.4-3.2,0.6-3.2-0.5C11.7,17.7,12.8,18.1,13.3,18z"/>
	<path fill-rule="evenodd" clip-rule="evenodd" fill="#5BC7FF" d="M12.6,22.6c-2.5,0-4.5-0.4-6.1-1.2c-0.8-0.6-2.1-1.9-2.9-1.7
		c-0.1-0.3-0.3-0.4-0.5-0.5C-2.5,14.2-0.1,2.3,7.2,1c0.1,0.4,0.4,0.6,0.5,1c1.3,7.8,6.4,14,13.3,17c-0.1,0.3-0.4,0.4-0.5,0.7
		c-2,1.4-4.2,2.4-7,2.9c-0.2,0-0.5,0-0.7,0C12.7,22.6,12.7,22.6,12.6,22.6z M11.1,17.7c0,0.2,0,0.5,0,0.7c0.1,1.1,3.8,1.6,4.1,0.2
		C14.9,17.5,12.4,17.2,11.1,17.7z"/>
	<path fill-rule="evenodd" clip-rule="evenodd" fill="#5BC7FF" d="M97.2,22.6c-2.5,0-4.5-0.4-6.1-1.2c-0.8-0.6-2.1-1.9-2.9-1.7
		c-0.1-0.3-0.3-0.4-0.5-0.5c-5.7-5-3.2-16.8,4.1-18.2c0.1,0.4,0.4,0.6,0.5,1c1.3,7.8,6.4,14,13.3,17c-0.1,0.3-0.4,0.4-0.5,0.7
		c-2,1.4-4.2,2.4-7,2.9c-0.2,0-0.5,0-0.7,0C97.4,22.6,97.3,22.6,97.2,22.6z M95.8,17.7c0,0.2,0,0.5,0,0.7c0.1,1.1,3.8,1.6,4.1,0.2
		C99.5,17.5,97,17.2,95.8,17.7z"/>
</g>
</svg>
